<?xml version="1.0" standalone="no"?>
<!DOCTYPE svg PUBLIC "-//W3C//DTD SVG 20010904//EN"
 "http://www.w3.org/TR/2001/REC-SVG-20010904/DTD/svg10.dtd">
<svg version="1.0" xmlns="http://www.w3.org/2000/svg"
 width="1574.000000pt" height="1577.000000pt" viewBox="0 0 1574.000000 1577.000000"
 preserveAspectRatio="xMidYMid meet">

<g transform="translate(0.000000,1577.000000) scale(0.100000,-0.100000)"
fill="#000000" stroke="none">
<path d="M8060 15753 c-790 -42 -1407 -170 -2065 -430 -1733 -684 -2968 -2187
-3400 -4136 -93 -418 -164 -996 -165 -1337 0 -58 -3 -115 -6 -127 l-6 -23
-1078 0 c-1160 0 -1128 1 -1206 -52 -39 -26 -61 -69 -98 -185 -29 -93 -33
-148 -11 -198 18 -46 3650 -4699 3705 -4749 64 -58 120 -79 212 -79 96 0 164
30 229 101 25 26 861 1093 1859 2372 1158 1484 1819 2339 1828 2365 43 124
-58 323 -202 399 l-49 26 -1076 0 -1076 0 2 147 c28 1670 400 3096 1080 4138
351 537 788 988 1328 1370 107 75 510 347 581 392 15 9 -17 12 -156 11 -96 -1
-200 -3 -230 -5z"/>
<path d="M11720 11296 c-54 -16 -96 -37 -131 -68 -35 -30 -3641 -4653 -3662
-4695 -26 -49 -47 -151 -47 -225 0 -62 3 -69 38 -115 43 -54 103 -98 159 -119
31 -11 237 -13 1131 -14 l1092 0 0 -129 c0 -142 -15 -463 -30 -671 -87 -1134
-322 -2080 -720 -2897 -378 -776 -888 -1390 -1580 -1900 -130 -96 -598 -412
-637 -431 -18 -9 -33 -20 -33 -25 0 -11 372 -3 590 14 580 42 1084 143 1600
318 2036 691 3427 2440 3764 4736 43 291 76 681 76 893 l0 92 1043 0 c1137 0
1120 -1 1195 57 39 29 72 79 72 108 0 11 14 37 30 57 62 75 88 176 58 231 -24
47 -3633 4665 -3678 4708 -29 27 -69 54 -97 64 -65 22 -177 28 -233 11z"/>
</g>
</svg>
