<?xml version="1.0" standalone="no"?>
<!DOCTYPE svg PUBLIC "-//W3C//DTD SVG 20010904//EN"
 "http://www.w3.org/TR/2001/REC-SVG-20010904/DTD/svg10.dtd">
<svg version="1.0" xmlns="http://www.w3.org/2000/svg"
 width="487.000000pt" height="512.000000pt" viewBox="0 0 487.000000 512.000000"
 preserveAspectRatio="xMidYMid meet">

<g transform="translate(0.000000,512.000000) scale(0.100000,-0.100000)"
fill="#000000" stroke="none">
<path d="M2400 4994 c-516 -38 -1000 -245 -1394 -598 -141 -127 -293 -318
-430 -540 l-18 -29 -279 279 -279 279 0 -793 0 -792 785 0 c432 0 785 3 785 7
0 5 -151 159 -336 344 l-336 336 56 92 c243 404 583 687 999 830 708 244 1475
38 1975 -529 106 -122 181 -234 262 -395 126 -249 178 -458 187 -745 6 -198
-7 -332 -48 -492 -171 -677 -709 -1200 -1390 -1352 -474 -106 -981 -10 -1389
262 -298 199 -533 481 -685 825 l-39 87 -253 0 -253 0 6 -27 c38 -159 174
-452 292 -628 368 -553 913 -904 1582 -1022 149 -26 558 -26 712 0 486 82 898
287 1243 619 375 360 612 820 691 1343 27 178 25 505 -4 680 -105 618 -431
1149 -932 1517 -301 221 -656 365 -1039 423 -102 15 -371 26 -471 19z"/>
<path d="M2190 3158 l1 -623 561 -334 c309 -184 568 -334 576 -335 9 -1 53 61
108 151 l93 152 -187 114 c-103 62 -321 194 -484 292 l-298 178 0 513 0 514
-185 0 -185 0 0 -622z"/>
</g>
</svg>
